<svg width="235" height="33" viewBox="0 0 235 33" fill="none" xmlns="http://www.w3.org/2000/svg">
<path d="M56.5414 25L62.5174 7.48H68.0854L74.2294 25H70.7254L65.5174 9.808L66.7414 10.336H63.7414L64.9894 9.808L59.9494 25H56.5414ZM60.7174 20.344L61.7974 17.464H68.9014L69.9574 20.344H60.7174ZM80.8204 25.408C79.3164 25.408 78.1484 24.912 77.3164 23.92C76.5004 22.928 76.0924 21.456 76.0924 19.504V11.944H79.4284V19.792C79.4284 20.592 79.6524 21.232 80.1004 21.712C80.5484 22.176 81.1564 22.408 81.9244 22.408C82.6924 22.408 83.3164 22.16 83.7964 21.664C84.2924 21.168 84.5404 20.496 84.5404 19.648V11.944H87.8764V25H85.2364V19.456H85.5004C85.5004 20.768 85.3324 21.864 84.9964 22.744C84.6604 23.624 84.1564 24.288 83.4844 24.736C82.8124 25.184 81.9724 25.408 80.9644 25.408H80.8204ZM97.3725 25.168C96.1725 25.168 95.1805 25.016 94.3965 24.712C93.6285 24.392 93.0525 23.864 92.6685 23.128C92.2845 22.376 92.0925 21.368 92.0925 20.104L92.1165 8.296H95.2365L95.2125 20.32C95.2125 20.96 95.3805 21.456 95.7165 21.808C96.0685 22.144 96.5645 22.312 97.2045 22.312H99.2445V25.168H97.3725ZM90.0285 14.416V11.968H99.2445V14.416H90.0285ZM108.238 25.456C107.086 25.456 106.07 25.272 105.19 24.904C104.31 24.536 103.566 24.04 102.958 23.416C102.35 22.776 101.886 22.056 101.566 21.256C101.262 20.456 101.11 19.624 101.11 18.76V18.256C101.11 17.36 101.27 16.512 101.59 15.712C101.926 14.896 102.398 14.176 103.006 13.552C103.63 12.912 104.382 12.416 105.262 12.064C106.142 11.696 107.134 11.512 108.238 11.512C109.342 11.512 110.334 11.696 111.214 12.064C112.094 12.416 112.838 12.912 113.446 13.552C114.07 14.176 114.542 14.896 114.862 15.712C115.182 16.512 115.342 17.36 115.342 18.256V18.76C115.342 19.624 115.182 20.456 114.862 21.256C114.558 22.056 114.102 22.776 113.494 23.416C112.886 24.04 112.142 24.536 111.262 24.904C110.382 25.272 109.374 25.456 108.238 25.456ZM108.238 22.6C109.054 22.6 109.742 22.424 110.302 22.072C110.862 21.704 111.286 21.216 111.574 20.608C111.862 19.984 112.006 19.28 112.006 18.496C112.006 17.696 111.854 16.992 111.55 16.384C111.262 15.76 110.83 15.272 110.254 14.92C109.694 14.552 109.022 14.368 108.238 14.368C107.454 14.368 106.774 14.552 106.198 14.92C105.638 15.272 105.206 15.76 104.902 16.384C104.598 16.992 104.446 17.696 104.446 18.496C104.446 19.28 104.59 19.984 104.878 20.608C105.182 21.216 105.614 21.704 106.174 22.072C106.734 22.424 107.422 22.6 108.238 22.6ZM124.047 25.456C122.911 25.456 121.927 25.264 121.095 24.88C120.279 24.496 119.591 23.984 119.031 23.344C118.487 22.704 118.079 21.984 117.807 21.184C117.535 20.384 117.399 19.568 117.399 18.736V18.28C117.399 17.4 117.535 16.56 117.807 15.76C118.095 14.944 118.519 14.224 119.079 13.6C119.639 12.96 120.327 12.456 121.143 12.088C121.975 11.704 122.935 11.512 124.023 11.512C125.159 11.512 126.175 11.736 127.071 12.184C127.967 12.616 128.679 13.224 129.207 14.008C129.751 14.792 130.055 15.704 130.119 16.744H126.879C126.799 16.072 126.511 15.512 126.015 15.064C125.535 14.616 124.871 14.392 124.023 14.392C123.287 14.392 122.671 14.568 122.175 14.92C121.695 15.272 121.335 15.76 121.095 16.384C120.855 16.992 120.735 17.696 120.735 18.496C120.735 19.264 120.847 19.96 121.071 20.584C121.311 21.208 121.671 21.696 122.151 22.048C122.647 22.4 123.279 22.576 124.047 22.576C124.623 22.576 125.119 22.472 125.535 22.264C125.951 22.056 126.279 21.768 126.519 21.4C126.775 21.032 126.935 20.616 126.999 20.152H130.239C130.175 21.208 129.863 22.136 129.303 22.936C128.759 23.72 128.031 24.336 127.119 24.784C126.223 25.232 125.199 25.456 124.047 25.456ZM139.176 25.456C138.024 25.456 137.008 25.272 136.128 24.904C135.248 24.536 134.504 24.04 133.896 23.416C133.288 22.776 132.824 22.056 132.504 21.256C132.2 20.456 132.048 19.624 132.048 18.76V18.256C132.048 17.36 132.208 16.512 132.528 15.712C132.864 14.896 133.336 14.176 133.944 13.552C134.568 12.912 135.32 12.416 136.2 12.064C137.08 11.696 138.072 11.512 139.176 11.512C140.28 11.512 141.272 11.696 142.152 12.064C143.032 12.416 143.776 12.912 144.384 13.552C145.008 14.176 145.48 14.896 145.8 15.712C146.12 16.512 146.28 17.36 146.28 18.256V18.76C146.28 19.624 146.12 20.456 145.8 21.256C145.496 22.056 145.04 22.776 144.432 23.416C143.824 24.04 143.08 24.536 142.2 24.904C141.32 25.272 140.312 25.456 139.176 25.456ZM139.176 22.6C139.992 22.6 140.68 22.424 141.24 22.072C141.8 21.704 142.224 21.216 142.512 20.608C142.8 19.984 142.944 19.28 142.944 18.496C142.944 17.696 142.792 16.992 142.488 16.384C142.2 15.76 141.768 15.272 141.192 14.92C140.632 14.552 139.96 14.368 139.176 14.368C138.392 14.368 137.712 14.552 137.136 14.92C136.576 15.272 136.144 15.76 135.84 16.384C135.536 16.992 135.384 17.696 135.384 18.496C135.384 19.28 135.528 19.984 135.816 20.608C136.12 21.216 136.552 21.704 137.112 22.072C137.672 22.424 138.36 22.6 139.176 22.6ZM149.201 25V11.968H151.841V17.56H151.601C151.601 16.248 151.769 15.152 152.105 14.272C152.441 13.376 152.937 12.704 153.593 12.256C154.265 11.792 155.097 11.56 156.089 11.56H156.233C157.241 11.56 158.073 11.792 158.729 12.256C159.401 12.704 159.897 13.376 160.217 14.272C160.553 15.152 160.721 16.248 160.721 17.56H159.881C159.881 16.248 160.049 15.152 160.385 14.272C160.737 13.376 161.241 12.704 161.897 12.256C162.569 11.792 163.401 11.56 164.393 11.56H164.537C165.545 11.56 166.385 11.792 167.057 12.256C167.729 12.704 168.233 13.376 168.569 14.272C168.921 15.152 169.097 16.248 169.097 17.56V25H165.761V17.248C165.761 16.432 165.553 15.784 165.137 15.304C164.721 14.808 164.129 14.56 163.361 14.56C162.593 14.56 161.977 14.816 161.513 15.328C161.049 15.824 160.817 16.496 160.817 17.344V25H157.481V17.248C157.481 16.432 157.273 15.784 156.857 15.304C156.441 14.808 155.849 14.56 155.081 14.56C154.313 14.56 153.697 14.816 153.233 15.328C152.769 15.824 152.537 16.496 152.537 17.344V25H149.201ZM172.662 29.8V11.968H175.302V17.584L174.894 17.56C174.958 16.232 175.23 15.12 175.71 14.224C176.206 13.328 176.862 12.664 177.678 12.232C178.494 11.784 179.406 11.56 180.414 11.56C181.342 11.56 182.174 11.728 182.91 12.064C183.662 12.4 184.302 12.872 184.83 13.48C185.374 14.088 185.79 14.8 186.078 15.616C186.366 16.416 186.51 17.28 186.51 18.208V18.712C186.51 19.656 186.366 20.536 186.078 21.352C185.806 22.152 185.398 22.864 184.854 23.488C184.326 24.096 183.686 24.576 182.934 24.928C182.182 25.264 181.342 25.432 180.414 25.432C179.438 25.432 178.542 25.232 177.726 24.832C176.926 24.416 176.278 23.784 175.782 22.936C175.286 22.072 175.006 20.96 174.942 19.6L175.998 21.208V29.8H172.662ZM179.574 22.624C180.294 22.624 180.918 22.448 181.446 22.096C181.99 21.744 182.414 21.256 182.718 20.632C183.022 19.992 183.174 19.272 183.174 18.472C183.174 17.64 183.022 16.92 182.718 16.312C182.414 15.704 181.99 15.232 181.446 14.896C180.918 14.544 180.294 14.368 179.574 14.368C178.918 14.368 178.31 14.512 177.75 14.8C177.206 15.088 176.758 15.512 176.406 16.072C176.07 16.632 175.902 17.304 175.902 18.088V19.048C175.902 19.8 176.078 20.44 176.43 20.968C176.782 21.496 177.238 21.904 177.798 22.192C178.358 22.48 178.95 22.624 179.574 22.624ZM189.611 25V7.48H192.947V25H189.611ZM187.979 9.976V7.48H192.947V9.976H187.979ZM202.587 25.456C201.467 25.456 200.483 25.264 199.635 24.88C198.803 24.496 198.107 23.984 197.547 23.344C197.003 22.688 196.587 21.96 196.299 21.16C196.027 20.36 195.891 19.544 195.891 18.712V18.256C195.891 17.392 196.027 16.56 196.299 15.76C196.587 14.944 197.003 14.224 197.547 13.6C198.107 12.96 198.795 12.456 199.611 12.088C200.427 11.704 201.371 11.512 202.443 11.512C203.851 11.512 205.027 11.824 205.971 12.448C206.931 13.056 207.651 13.864 208.131 14.872C208.611 15.864 208.851 16.936 208.851 18.088V19.288H197.307V17.248H206.763L205.731 18.256C205.731 17.424 205.611 16.712 205.371 16.12C205.131 15.528 204.763 15.072 204.267 14.752C203.787 14.432 203.179 14.272 202.443 14.272C201.707 14.272 201.083 14.44 200.571 14.776C200.059 15.112 199.667 15.6 199.395 16.24C199.139 16.864 199.011 17.616 199.011 18.496C199.011 19.312 199.139 20.04 199.395 20.68C199.651 21.304 200.043 21.8 200.571 22.168C201.099 22.52 201.771 22.696 202.587 22.696C203.403 22.696 204.067 22.536 204.579 22.216C205.091 21.88 205.419 21.472 205.563 20.992H208.635C208.443 21.888 208.075 22.672 207.531 23.344C206.987 24.016 206.291 24.536 205.443 24.904C204.611 25.272 203.659 25.456 202.587 25.456ZM217.302 25.168C216.102 25.168 215.11 25.016 214.326 24.712C213.558 24.392 212.982 23.864 212.598 23.128C212.214 22.376 212.022 21.368 212.022 20.104L212.046 8.296H215.166L215.142 20.32C215.142 20.96 215.31 21.456 215.646 21.808C215.998 22.144 216.494 22.312 217.134 22.312H219.174V25.168H217.302ZM209.958 14.416V11.968H219.174V14.416H209.958ZM227.736 25.456C226.616 25.456 225.632 25.264 224.784 24.88C223.952 24.496 223.256 23.984 222.696 23.344C222.152 22.688 221.736 21.96 221.448 21.16C221.176 20.36 221.04 19.544 221.04 18.712V18.256C221.04 17.392 221.176 16.56 221.448 15.76C221.736 14.944 222.152 14.224 222.696 13.6C223.256 12.96 223.944 12.456 224.76 12.088C225.576 11.704 226.52 11.512 227.592 11.512C229 11.512 230.176 11.824 231.12 12.448C232.08 13.056 232.8 13.864 233.28 14.872C233.76 15.864 234 16.936 234 18.088V19.288H222.456V17.248H231.912L230.88 18.256C230.88 17.424 230.76 16.712 230.52 16.12C230.28 15.528 229.912 15.072 229.416 14.752C228.936 14.432 228.328 14.272 227.592 14.272C226.856 14.272 226.232 14.44 225.72 14.776C225.208 15.112 224.816 15.6 224.544 16.24C224.288 16.864 224.16 17.616 224.16 18.496C224.16 19.312 224.288 20.04 224.544 20.68C224.8 21.304 225.192 21.8 225.72 22.168C226.248 22.52 226.92 22.696 227.736 22.696C228.552 22.696 229.216 22.536 229.728 22.216C230.24 21.88 230.568 21.472 230.712 20.992H233.784C233.592 21.888 233.224 22.672 232.68 23.344C232.136 24.016 231.44 24.536 230.592 24.904C229.76 25.272 228.808 25.456 227.736 25.456Z" fill="#212121"/>
<rect x="41" width="9" height="41" rx="2" transform="rotate(90 41 0)" fill="#67B6FF"/>
<rect x="41" y="20" width="5" height="41" rx="2" transform="rotate(90 41 20)" fill="#00DCB3"/>
<rect x="41" y="28" width="5" height="41" rx="2" transform="rotate(90 41 28)" fill="#00DCB3"/>
<rect x="41" y="12" width="5" height="41" rx="2" transform="rotate(90 41 12)" fill="#00DCB3"/>
<rect x="3" y="2" width="1" height="5" fill="white"/>
</svg>
