<svg width="900" height="230" viewBox="0 0 900 230" fill="none" xmlns="http://www.w3.org/2000/svg">
<rect width="900" height="230" fill="url(#paint0_linear_71_2)"/>
<path d="M397.541 115L403.517 97.48H409.085L415.229 115H411.725L406.517 99.808L407.741 100.336H404.741L405.989 99.808L400.949 115H397.541ZM401.717 110.344L402.797 107.464H409.901L410.957 110.344H401.717ZM421.82 115.408C420.316 115.408 419.148 114.912 418.316 113.92C417.5 112.928 417.092 111.456 417.092 109.504V101.944H420.428V109.792C420.428 110.592 420.652 111.232 421.1 111.712C421.548 112.176 422.156 112.408 422.924 112.408C423.692 112.408 424.316 112.16 424.796 111.664C425.292 111.168 425.54 110.496 425.54 109.648V101.944H428.876V115H426.236V109.456H426.5C426.5 110.768 426.332 111.864 425.996 112.744C425.66 113.624 425.156 114.288 424.484 114.736C423.812 115.184 422.972 115.408 421.964 115.408H421.82ZM438.373 115.168C437.173 115.168 436.181 115.016 435.397 114.712C434.629 114.392 434.053 113.864 433.669 113.128C433.285 112.376 433.093 111.368 433.093 110.104L433.117 98.296H436.237L436.213 110.32C436.213 110.96 436.381 111.456 436.717 111.808C437.069 112.144 437.565 112.312 438.205 112.312H440.245V115.168H438.373ZM431.029 104.416V101.968H440.245V104.416H431.029ZM449.238 115.456C448.086 115.456 447.07 115.272 446.19 114.904C445.31 114.536 444.566 114.04 443.958 113.416C443.35 112.776 442.886 112.056 442.566 111.256C442.262 110.456 442.11 109.624 442.11 108.76V108.256C442.11 107.36 442.27 106.512 442.59 105.712C442.926 104.896 443.398 104.176 444.006 103.552C444.63 102.912 445.382 102.416 446.262 102.064C447.142 101.696 448.134 101.512 449.238 101.512C450.342 101.512 451.334 101.696 452.214 102.064C453.094 102.416 453.838 102.912 454.446 103.552C455.07 104.176 455.542 104.896 455.862 105.712C456.182 106.512 456.342 107.36 456.342 108.256V108.76C456.342 109.624 456.182 110.456 455.862 111.256C455.558 112.056 455.102 112.776 454.494 113.416C453.886 114.04 453.142 114.536 452.262 114.904C451.382 115.272 450.374 115.456 449.238 115.456ZM449.238 112.6C450.054 112.6 450.742 112.424 451.302 112.072C451.862 111.704 452.286 111.216 452.574 110.608C452.862 109.984 453.006 109.28 453.006 108.496C453.006 107.696 452.854 106.992 452.55 106.384C452.262 105.76 451.83 105.272 451.254 104.92C450.694 104.552 450.022 104.368 449.238 104.368C448.454 104.368 447.774 104.552 447.198 104.92C446.638 105.272 446.206 105.76 445.902 106.384C445.598 106.992 445.446 107.696 445.446 108.496C445.446 109.28 445.59 109.984 445.878 110.608C446.182 111.216 446.614 111.704 447.174 112.072C447.734 112.424 448.422 112.6 449.238 112.6ZM465.047 115.456C463.911 115.456 462.927 115.264 462.095 114.88C461.279 114.496 460.591 113.984 460.031 113.344C459.487 112.704 459.079 111.984 458.807 111.184C458.535 110.384 458.399 109.568 458.399 108.736V108.28C458.399 107.4 458.535 106.56 458.807 105.76C459.095 104.944 459.519 104.224 460.079 103.6C460.639 102.96 461.327 102.456 462.143 102.088C462.975 101.704 463.935 101.512 465.023 101.512C466.159 101.512 467.175 101.736 468.071 102.184C468.967 102.616 469.679 103.224 470.207 104.008C470.751 104.792 471.055 105.704 471.119 106.744H467.879C467.799 106.072 467.511 105.512 467.015 105.064C466.535 104.616 465.871 104.392 465.023 104.392C464.287 104.392 463.671 104.568 463.175 104.92C462.695 105.272 462.335 105.76 462.095 106.384C461.855 106.992 461.735 107.696 461.735 108.496C461.735 109.264 461.847 109.96 462.071 110.584C462.311 111.208 462.671 111.696 463.151 112.048C463.647 112.4 464.279 112.576 465.047 112.576C465.623 112.576 466.119 112.472 466.535 112.264C466.951 112.056 467.279 111.768 467.519 111.4C467.775 111.032 467.935 110.616 467.999 110.152H471.239C471.175 111.208 470.863 112.136 470.303 112.936C469.759 113.72 469.031 114.336 468.119 114.784C467.223 115.232 466.199 115.456 465.047 115.456ZM480.176 115.456C479.024 115.456 478.008 115.272 477.128 114.904C476.248 114.536 475.504 114.04 474.896 113.416C474.288 112.776 473.824 112.056 473.504 111.256C473.2 110.456 473.048 109.624 473.048 108.76V108.256C473.048 107.36 473.208 106.512 473.528 105.712C473.864 104.896 474.336 104.176 474.944 103.552C475.568 102.912 476.32 102.416 477.2 102.064C478.08 101.696 479.072 101.512 480.176 101.512C481.28 101.512 482.272 101.696 483.152 102.064C484.032 102.416 484.776 102.912 485.384 103.552C486.008 104.176 486.48 104.896 486.8 105.712C487.12 106.512 487.28 107.36 487.28 108.256V108.76C487.28 109.624 487.12 110.456 486.8 111.256C486.496 112.056 486.04 112.776 485.432 113.416C484.824 114.04 484.08 114.536 483.2 114.904C482.32 115.272 481.312 115.456 480.176 115.456ZM480.176 112.6C480.992 112.6 481.68 112.424 482.24 112.072C482.8 111.704 483.224 111.216 483.512 110.608C483.8 109.984 483.944 109.28 483.944 108.496C483.944 107.696 483.792 106.992 483.488 106.384C483.2 105.76 482.768 105.272 482.192 104.92C481.632 104.552 480.96 104.368 480.176 104.368C479.392 104.368 478.712 104.552 478.136 104.92C477.576 105.272 477.144 105.76 476.84 106.384C476.536 106.992 476.384 107.696 476.384 108.496C476.384 109.28 476.528 109.984 476.816 110.608C477.12 111.216 477.552 111.704 478.112 112.072C478.672 112.424 479.36 112.6 480.176 112.6ZM490.201 115V101.968H492.841V107.56H492.601C492.601 106.248 492.769 105.152 493.105 104.272C493.441 103.376 493.937 102.704 494.593 102.256C495.265 101.792 496.097 101.56 497.089 101.56H497.233C498.241 101.56 499.073 101.792 499.729 102.256C500.401 102.704 500.897 103.376 501.217 104.272C501.553 105.152 501.721 106.248 501.721 107.56H500.881C500.881 106.248 501.049 105.152 501.385 104.272C501.737 103.376 502.241 102.704 502.897 102.256C503.569 101.792 504.401 101.56 505.393 101.56H505.537C506.545 101.56 507.385 101.792 508.057 102.256C508.729 102.704 509.233 103.376 509.569 104.272C509.921 105.152 510.097 106.248 510.097 107.56V115H506.761V107.248C506.761 106.432 506.553 105.784 506.137 105.304C505.721 104.808 505.129 104.56 504.361 104.56C503.593 104.56 502.977 104.816 502.513 105.328C502.049 105.824 501.817 106.496 501.817 107.344V115H498.481V107.248C498.481 106.432 498.273 105.784 497.857 105.304C497.441 104.808 496.849 104.56 496.081 104.56C495.313 104.56 494.697 104.816 494.233 105.328C493.769 105.824 493.537 106.496 493.537 107.344V115H490.201ZM513.662 119.8V101.968H516.302V107.584L515.894 107.56C515.958 106.232 516.23 105.12 516.71 104.224C517.206 103.328 517.862 102.664 518.678 102.232C519.494 101.784 520.406 101.56 521.414 101.56C522.342 101.56 523.174 101.728 523.91 102.064C524.662 102.4 525.302 102.872 525.83 103.48C526.374 104.088 526.79 104.8 527.078 105.616C527.366 106.416 527.51 107.28 527.51 108.208V108.712C527.51 109.656 527.366 110.536 527.078 111.352C526.806 112.152 526.398 112.864 525.854 113.488C525.326 114.096 524.686 114.576 523.934 114.928C523.182 115.264 522.342 115.432 521.414 115.432C520.438 115.432 519.542 115.232 518.726 114.832C517.926 114.416 517.278 113.784 516.782 112.936C516.286 112.072 516.006 110.96 515.942 109.6L516.998 111.208V119.8H513.662ZM520.574 112.624C521.294 112.624 521.918 112.448 522.446 112.096C522.99 111.744 523.414 111.256 523.718 110.632C524.022 109.992 524.174 109.272 524.174 108.472C524.174 107.64 524.022 106.92 523.718 106.312C523.414 105.704 522.99 105.232 522.446 104.896C521.918 104.544 521.294 104.368 520.574 104.368C519.918 104.368 519.31 104.512 518.75 104.8C518.206 105.088 517.758 105.512 517.406 106.072C517.07 106.632 516.902 107.304 516.902 108.088V109.048C516.902 109.8 517.078 110.44 517.43 110.968C517.782 111.496 518.238 111.904 518.798 112.192C519.358 112.48 519.95 112.624 520.574 112.624ZM530.611 115V97.48H533.947V115H530.611ZM528.979 99.976V97.48H533.947V99.976H528.979ZM543.587 115.456C542.467 115.456 541.483 115.264 540.635 114.88C539.803 114.496 539.107 113.984 538.547 113.344C538.003 112.688 537.587 111.96 537.299 111.16C537.027 110.36 536.891 109.544 536.891 108.712V108.256C536.891 107.392 537.027 106.56 537.299 105.76C537.587 104.944 538.003 104.224 538.547 103.6C539.107 102.96 539.795 102.456 540.611 102.088C541.427 101.704 542.371 101.512 543.443 101.512C544.851 101.512 546.027 101.824 546.971 102.448C547.931 103.056 548.651 103.864 549.131 104.872C549.611 105.864 549.851 106.936 549.851 108.088V109.288H538.307V107.248H547.763L546.731 108.256C546.731 107.424 546.611 106.712 546.371 106.12C546.131 105.528 545.763 105.072 545.267 104.752C544.787 104.432 544.179 104.272 543.443 104.272C542.707 104.272 542.083 104.44 541.571 104.776C541.059 105.112 540.667 105.6 540.395 106.24C540.139 106.864 540.011 107.616 540.011 108.496C540.011 109.312 540.139 110.04 540.395 110.68C540.651 111.304 541.043 111.8 541.571 112.168C542.099 112.52 542.771 112.696 543.587 112.696C544.403 112.696 545.067 112.536 545.579 112.216C546.091 111.88 546.419 111.472 546.563 110.992H549.635C549.443 111.888 549.075 112.672 548.531 113.344C547.987 114.016 547.291 114.536 546.443 114.904C545.611 115.272 544.659 115.456 543.587 115.456ZM558.302 115.168C557.102 115.168 556.11 115.016 555.326 114.712C554.558 114.392 553.982 113.864 553.598 113.128C553.214 112.376 553.022 111.368 553.022 110.104L553.046 98.296H556.166L556.142 110.32C556.142 110.96 556.31 111.456 556.646 111.808C556.998 112.144 557.494 112.312 558.134 112.312H560.174V115.168H558.302ZM550.958 104.416V101.968H560.174V104.416H550.958ZM568.736 115.456C567.616 115.456 566.632 115.264 565.784 114.88C564.952 114.496 564.256 113.984 563.696 113.344C563.152 112.688 562.736 111.96 562.448 111.16C562.176 110.36 562.04 109.544 562.04 108.712V108.256C562.04 107.392 562.176 106.56 562.448 105.76C562.736 104.944 563.152 104.224 563.696 103.6C564.256 102.96 564.944 102.456 565.76 102.088C566.576 101.704 567.52 101.512 568.592 101.512C570 101.512 571.176 101.824 572.12 102.448C573.08 103.056 573.8 103.864 574.28 104.872C574.76 105.864 575 106.936 575 108.088V109.288H563.456V107.248H572.912L571.88 108.256C571.88 107.424 571.76 106.712 571.52 106.12C571.28 105.528 570.912 105.072 570.416 104.752C569.936 104.432 569.328 104.272 568.592 104.272C567.856 104.272 567.232 104.44 566.72 104.776C566.208 105.112 565.816 105.6 565.544 106.24C565.288 106.864 565.16 107.616 565.16 108.496C565.16 109.312 565.288 110.04 565.544 110.68C565.8 111.304 566.192 111.8 566.72 112.168C567.248 112.52 567.92 112.696 568.736 112.696C569.552 112.696 570.216 112.536 570.728 112.216C571.24 111.88 571.568 111.472 571.712 110.992H574.784C574.592 111.888 574.224 112.672 573.68 113.344C573.136 114.016 572.44 114.536 571.592 114.904C570.76 115.272 569.808 115.456 568.736 115.456Z" fill="white"/>
<rect x="382" y="90" width="9" height="41" rx="2" transform="rotate(90 382 90)" fill="#67B6FF"/>
<rect x="382" y="110" width="5" height="41" rx="2" transform="rotate(90 382 110)" fill="#00DCB3"/>
<rect x="382" y="118" width="5" height="41" rx="2" transform="rotate(90 382 118)" fill="#00DCB3"/>
<rect x="382" y="102" width="5" height="41" rx="2" transform="rotate(90 382 102)" fill="#00DCB3"/>
<rect x="344" y="92" width="1" height="5" fill="white"/>
<defs>
<linearGradient id="paint0_linear_71_2" x1="450" y1="230" x2="450" y2="0" gradientUnits="userSpaceOnUse">
<stop/>
<stop offset="1" stop-color="#212121"/>
</linearGradient>
</defs>
</svg>
